<?xml version="1.0" encoding="utf-8"?>
<!-- Generator: Adobe Illustrator 16.0.3, SVG Export Plug-In . SVG Version: 6.00 Build 0)  -->
<!DOCTYPE svg PUBLIC "-//W3C//DTD SVG 1.1//EN" "http://www.w3.org/Graphics/SVG/1.1/DTD/svg11.dtd">
<svg version="1.1" id="Layer_1" xmlns="http://www.w3.org/2000/svg" xmlns:xlink="http://www.w3.org/1999/xlink" x="0px" y="0px"
	 width="2208px" height="2208px" viewBox="0 0 2208 2208" enable-background="new 0 0 2208 2208" xml:space="preserve">
<path d="M353.267,188.485c17.366,0,32.921,9.378,46.668,28.063c13.659,18.684,20.574,44.282,20.574,76.543v1636.116
	c0,44.773-11.273,75.965-33.66,93.414c-22.386,17.367-44.855,17.367-67.242,0c-22.47-17.449-33.665-48.641-33.665-93.414V293.091
	c0-22.387,3.129-41.644,9.466-57.859c6.171-16.216,14.16-27.984,24.199-35.473C329.563,192.271,340.759,188.485,353.267,188.485
	 M1242.229,293.091c54.729-37.368,109.547-65.926,164.359-85.844c54.734-19.918,103.955-31.109,147.488-33.66
	c43.621-2.468,86.008-1.234,127.08,3.703c41.07,5.102,75.881,14.319,104.527,28.067c28.641,13.658,53.66,26.744,74.813,39.175
	c21.07,12.507,36.707,23.703,46.58,33.659l14.982,14.899v956.204c-7.412-7.405-18.105-16.706-31.771-27.984
	c-13.746-11.19-43.539-28.067-89.629-50.371c-46.09-22.387-93.986-36.707-143.785-42.961
	c-49.957-6.171-112.754-0.578-188.635,16.871c-76.053,17.45-151.852,51.605-227.9,102.633
	c-75.969,51.032-151.278,85.844-225.925,104.61c-74.813,18.684-138.926,23.042-192.345,13.003
	c-53.66-9.874-100.901-22.965-141.89-39.175c-41.236-16.133-71.689-32.922-91.689-50.371l-29.792-26.255V293.091
	c7.411,7.487,18.022,16.871,31.77,28.067c13.582,11.19,43.456,27.405,89.712,48.559c46.008,21.152,93.827,34.894,143.62,41.07
	c49.958,6.171,112.754,0.655,188.719-16.794C1088.487,376.549,1165.029,342.966,1242.229,293.091"/>
</svg>
