<?xml version="1.0" encoding="utf-8"?>
<!-- Generator: Adobe Illustrator 16.0.3, SVG Export Plug-In . SVG Version: 6.00 Build 0)  -->
<!DOCTYPE svg PUBLIC "-//W3C//DTD SVG 1.1//EN" "http://www.w3.org/Graphics/SVG/1.1/DTD/svg11.dtd">
<svg version="1.1" id="Layer_1" xmlns="http://www.w3.org/2000/svg" xmlns:xlink="http://www.w3.org/1999/xlink" x="0px" y="0px"
	 width="2208px" height="2208px" viewBox="0 0 2208 2208" enable-background="new 0 0 2208 2208" xml:space="preserve">
<g>
	<polygon points="1529.734,849.532 1527.943,849.779 1529.734,861.651 	"/>
	<path d="M1529.734,872.164l-34.314-17.87c-3.527-1.854-7.299-2.783-11.256-2.783l-203.748-1.36c-6.492,0-12.736-2.721-17.254-7.297
		l-96.957-98.194l0.867-120.702c0.061-8.657-4.451-16.693-11.75-21.271l-83.107-50.579c-3.832-2.352-8.224-3.588-12.676-3.649
		l-85.394-0.494c-5.814,0-11.377,1.917-15.891,5.688l-86.881,72.037c-5.563,4.639-8.84,11.503-8.904,18.798l-1.914,356.913
		c-0.064,13.604,10.818,24.673,24.361,24.797l254.575,1.731c13.543,0.123,24.611-10.822,24.734-24.426l0.619-87.188l49.408,50.086
		l-0.064,4.823l265.336,1.794l50.209,0.309V872.164z"/>
	<path d="M1198.609,407.165c0,3.831-0.988,7.667-2.658,11.005l-23.004,45.202c-3.279,6.431-9.277,11.13-16.203,12.801
		l-74.384,17.683c-3.896,0.989-7.854,0.989-11.751,0l-74.08-18.735c-6.986-1.794-12.861-6.493-16.013-12.924l-22.508-45.572
		c-1.671-3.401-2.538-7.233-2.538-11.006l0.434-54.973l0.434-68.08c0-8.223,4.145-15.891,11.07-20.343l43.84-28.691
		c4.019-2.721,8.782-4.083,13.604-4.021l103.944,0.68c6.557,0.125,12.74,2.721,17.314,7.359l46.07,46.687
		c4.574,4.574,7.168,10.883,7.107,17.436l-0.309,50.583L1198.609,407.165z"/>
	<path d="M678.635,875.256l1.917-287.225c0.062-9.338,5.381-17.809,13.665-21.952l31.477-15.457
		c9.521-4.639,20.899-2.721,28.38,4.821l40.75,41.307c4.578,4.638,7.112,10.883,7.052,17.438l-2.104,326.117
		c-0.125,13.604-11.131,24.487-24.734,24.487l-33.451-0.247c-1.857,0-3.649-0.248-5.441-0.619l-38.959-9.212
		c-11.13-2.598-18.98-12.614-18.92-24.055L678.635,875.256z"/>
	<path d="M904.583,1125.625c0.122-2.287,1.237-4.266,1.731-6.491v-18.057c0-11.005,8.904-19.974,19.909-19.974h186.556
		c11.008,0,20.037,8.969,20.037,19.974v31.044l86.076,791.612c2.717,25.106-15.4,47.614-40.443,50.335l-37.842,4.141
		c-25.104,2.785-47.616-15.396-50.333-40.438l-67.216-617.362l-35.122,613.219c-1.484,25.229-23.068,44.46-48.297,43.037
		l-37.965-2.226c-25.168-1.359-44.46-23.003-42.977-48.232L904.583,1125.625z"/>
</g>
</svg>
