<?xml version="1.0" encoding="utf-8"?>
<!-- Generator: Adobe Illustrator 16.0.3, SVG Export Plug-In . SVG Version: 6.00 Build 0)  -->
<!DOCTYPE svg PUBLIC "-//W3C//DTD SVG 1.1//EN" "http://www.w3.org/Graphics/SVG/1.1/DTD/svg11.dtd">
<svg version="1.1" id="Layer_1" xmlns="http://www.w3.org/2000/svg" xmlns:xlink="http://www.w3.org/1999/xlink" x="0px" y="0px"
	 width="2208px" height="2208px" viewBox="0 0 2208 2208" enable-background="new 0 0 2208 2208" xml:space="preserve">
<g>
	<path d="M831.948,1072.953l90.451,14.31c4.99,0.798,21.764,3.46,26.023,4.19l50.451,8.056c5.123,0.864,9.65,3.658,12.709,7.852
		l58.104,79.868l226.824,312.284l-68.551,432.883c-1.732,10.649-11.779,18.037-22.429,16.374l-90.45-14.377
		c-10.716-1.666-18.104-11.714-16.374-22.498l55.974-352.88c0.8-5.192-0.467-10.45-3.595-14.71l-231.084-317.007l-125.658,789.226
		c-1.73,10.781-11.714,18.037-22.43,16.373l-90.517-14.376c-10.715-1.732-17.968-11.714-16.308-22.363l144.43-906.899
		C811.249,1078.542,821.233,1071.289,831.948,1072.953"/>
	<path d="M1176.577,995.148l0.801-5.258l-44.396-61.166l-14.773,92.646c-2.265,14.442-15.841,24.226-30.283,22.029l-270.555-42.927
		c-14.439-2.332-24.291-15.907-22.029-30.284l59.701-379.571c1.2-7.723,5.791-14.578,12.514-18.57l104.093-62.63
		c5.391-3.195,11.648-4.459,17.772-3.46l90.848,14.244c4.726,0.797,9.188,2.794,12.911,5.854l80.202,67.356
		c7.189,5.99,10.649,15.31,9.118,24.493l-20.433,128.255l87.322,120.268c4.062,5.59,10.315,9.452,17.237,10.517l216.575,34.275
		c4.193,0.731,8.119,2.329,11.516,4.792l35.34,25.892v-25.358h65.426v1111.957h-65.426v-977.445l-71.48-11.317L1176.577,995.148z"/>
	<path d="M1251.054,392.345c-0.598,4.061-2.262,7.92-4.659,11.247l-31.745,44.462c-4.527,6.257-11.582,10.249-19.304,10.913
		l-82.063,6.925c-4.193,0.331-8.52-0.334-12.379-1.997l-75.876-31.881c-7.12-2.996-12.577-8.985-14.909-16.374l-16.568-52.048
		c-1.267-3.926-1.601-8.119-0.934-12.18l9.251-58.435l11.446-72.281c1.398-8.786,7.123-16.307,15.109-19.968l51.248-23.494
		c4.727-2.063,10.051-2.861,15.177-2.063l110.481,17.57c6.922,1.134,13.113,4.928,17.307,10.649l41.398,57.107
		c4.191,5.589,5.854,12.713,4.789,19.7l-8.519,53.778L1251.054,392.345z"/>
	<path d="M622.163,806.525l48.387-305.359c1.598-9.984,8.586-18.104,18.17-21.166l35.873-11.313
		c10.916-3.462,22.696,0.4,29.486,9.65l36.604,50.517c4.193,5.722,5.859,12.779,4.795,19.701l-54.912,346.758
		c-2.328,14.376-15.841,24.294-30.28,21.963l-35.476-5.589c-1.998-0.334-3.926-0.866-5.725-1.531l-39.934-16.106
		c-11.513-4.593-18.236-16.439-16.308-28.686L622.163,806.525z"/>
</g>
</svg>
