<?xml version="1.0" encoding="utf-8"?>
<!-- Generator: Adobe Illustrator 16.0.3, SVG Export Plug-In . SVG Version: 6.00 Build 0)  -->
<!DOCTYPE svg PUBLIC "-//W3C//DTD SVG 1.1//EN" "http://www.w3.org/Graphics/SVG/1.1/DTD/svg11.dtd">
<svg version="1.1" id="Layer_1" xmlns="http://www.w3.org/2000/svg" xmlns:xlink="http://www.w3.org/1999/xlink" x="0px" y="0px"
	 width="2208px" height="2208px" viewBox="0 0 2208 2208" enable-background="new 0 0 2208 2208" xml:space="preserve">
<g>
	<path d="M587.494,746.729h1033.083c259.422,0,389.135,129.783,389.135,389.133v258.325c0,259.493-129.713,389.06-389.135,389.06
		H587.494c-259.492,0-389.205-129.566-389.205-389.06v-258.325C198.289,876.511,328.001,746.729,587.494,746.729 M568.034,896.996
		c-13.02-12.876-28.385-19.386-46.013-19.386c-17.706,0-33.071,6.51-46.021,19.386c-12.949,13.096-19.459,28.387-19.459,46.091
		s6.51,32.482,19.459,44.188c12.95,11.853,27.729,17.706,44.189,17.706c11.854,0,23.119-2.341,33.654-7.023
		c10.609-4.83,18.873-12.437,24.799-23.119c5.854-10.535,8.852-21.727,8.852-33.507
		C587.494,924.797,580.984,910.091,568.034,896.996 M909.468,424.754h389.135c40.016,0,72.5,8.853,97.303,26.557
		c24.799,17.632,43.014,40.678,54.793,68.988c11.779,28.313,25.975,71.989,42.506,130.882H714.866
		c11.705-44.772,21.801-78.353,29.994-100.813c8.269-22.386,19.46-44.846,33.654-67.232s31.827-37.677,53.04-46.017
		C852.846,428.851,878.742,424.754,909.468,424.754 M1104,877.61c-108.569,0-200.459,36.579-275.958,109.664
		c-75.498,73.161-113.177,166.292-113.177,279.542c0,106.154,38.263,196.943,114.935,272.372
		c76.669,75.499,168.046,113.177,274.2,113.177c108.496,0,200.38-37.092,275.957-111.35
		c75.498-74.329,113.248-165.703,113.248-274.199c0-110.91-37.75-203.457-113.248-277.713
		C1304.381,914.7,1212.496,877.61,1104,877.61 M1104,1004.98c75.423,0,137.32,24.216,185.751,72.5
		c48.283,48.432,72.5,111.495,72.5,189.336c0,77.768-23.633,140.318-70.746,187.506c-47.262,47.189-109.666,70.746-187.505,70.746
		c-77.844,0-140.392-23.557-187.51-70.746c-47.257-47.188-70.742-109.738-70.742-187.506c0-77.842,24.143-140.904,72.574-189.336
		C966.533,1029.196,1028.498,1004.98,1104,1004.98"/>
</g>
</svg>
